<svg
xmlns="http://www.w3.org/2000/svg"
width="32"
height="48"
version="1.1"
viewBox="0 0 16 24"
>
<path
  fill="#0e417b"
  fillOpacity="1"
  d="M14 6a5.997 5.997 0 01-5 5.91V20H7v-8.089A5.998 5.998 0 018 0a6 6 0 016 6zm-2 0c0-2.206-1.794-4-4-4S4 3.794 4 6s1.794 4 4 4 4-1.794 4-4zm-1 10.293v2.052l.438.107c1.706.493 2.496 1.027 2.507 1.547-.011.52-.801 1.054-2.507 1.547-2.097.606-4.786.604-6.874.001-1.695-.489-2.515-1.021-2.515-1.547s.82-1.058 2.516-1.548l.436-.106v-2.052C2.069 16.887 0 18.322 0 20c0 2.209 3.581 4 8 4 4.419 0 8-1.791 8-4 0-1.678-2.069-3.113-5-3.707z"
></path>
</svg>